<svg width="48" height="48" viewBox="0 0 48 48" fill="none" xmlns="http://www.w3.org/2000/svg">
<path d="M17.5 16C17.7083 16 17.9036 16.0391 18.0859 16.1172C18.2682 16.1953 18.4271 16.3021 18.5625 16.4375C18.6979 16.5729 18.8047 16.7318 18.8828 16.9141C18.9609 17.0964 19 17.2917 19 17.5C19 17.7083 18.9609 17.9036 18.8828 18.0859C18.8047 18.2682 18.6979 18.4271 18.5625 18.5625C18.4271 18.6979 18.2682 18.8047 18.0859 18.8828C17.9036 18.9609 17.7083 19 17.5 19C17.2917 19 17.0964 18.9609 16.9141 18.8828C16.7318 18.8047 16.5729 18.6979 16.4375 18.5625C16.3021 18.4271 16.1953 18.2682 16.1172 18.0859C16.0391 17.9036 16 17.7083 16 17.5C16 17.2917 16.0391 17.0964 16.1172 16.9141C16.1953 16.7318 16.3021 16.5729 16.4375 16.4375C16.5729 16.3021 16.7318 16.1953 16.9141 16.1172C17.0964 16.0391 17.2917 16 17.5 16ZM23.5 16C23.7083 16 23.9036 16.0391 24.0859 16.1172C24.2682 16.1953 24.4271 16.3021 24.5625 16.4375C24.6979 16.5729 24.8047 16.7318 24.8828 16.9141C24.9609 17.0964 25 17.2917 25 17.5C25 17.7083 24.9609 17.9036 24.8828 18.0859C24.8047 18.2682 24.6979 18.4271 24.5625 18.5625C24.4271 18.6979 24.2682 18.8047 24.0859 18.8828C23.9036 18.9609 23.7083 19 23.5 19C23.2917 19 23.0964 18.9609 22.9141 18.8828C22.7318 18.8047 22.5729 18.6979 22.4375 18.5625C22.3021 18.4271 22.1953 18.2682 22.1172 18.0859C22.0391 17.9036 22 17.7083 22 17.5C22 17.2917 22.0391 17.0964 22.1172 16.9141C22.1953 16.7318 22.3021 16.5729 22.4375 16.4375C22.5729 16.3021 22.7318 16.1953 22.9141 16.1172C23.0964 16.0391 23.2917 16 23.5 16ZM29.5 19C29.2917 19 29.0964 18.9609 28.9141 18.8828C28.7318 18.8047 28.5729 18.6979 28.4375 18.5625C28.3021 18.4271 28.1953 18.2682 28.1172 18.0859C28.0391 17.9036 28 17.7083 28 17.5C28 17.2917 28.0391 17.0964 28.1172 16.9141C28.1953 16.7318 28.3021 16.5729 28.4375 16.4375C28.5729 16.3021 28.7318 16.1953 28.9141 16.1172C29.0964 16.0391 29.2917 16 29.5 16C29.7083 16 29.9036 16.0391 30.0859 16.1172C30.2682 16.1953 30.4271 16.3021 30.5625 16.4375C30.6979 16.5729 30.8047 16.7318 30.8828 16.9141C30.9609 17.0964 31 17.2917 31 17.5C31 17.7083 30.9609 17.9036 30.8828 18.0859C30.8047 18.2682 30.6979 18.4271 30.5625 18.5625C30.4271 18.6979 30.2682 18.8047 30.0859 18.8828C29.9036 18.9609 29.7083 19 29.5 19ZM17.5 22C17.7083 22 17.9036 22.0391 18.0859 22.1172C18.2682 22.1953 18.4271 22.3021 18.5625 22.4375C18.6979 22.5729 18.8047 22.7318 18.8828 22.9141C18.9609 23.0964 19 23.2917 19 23.5C19 23.7083 18.9609 23.9036 18.8828 24.0859C18.8047 24.2682 18.6979 24.4271 18.5625 24.5625C18.4271 24.6979 18.2682 24.8047 18.0859 24.8828C17.9036 24.9609 17.7083 25 17.5 25C17.2917 25 17.0964 24.9609 16.9141 24.8828C16.7318 24.8047 16.5729 24.6979 16.4375 24.5625C16.3021 24.4271 16.1953 24.2682 16.1172 24.0859C16.0391 23.9036 16 23.7083 16 23.5C16 23.2917 16.0391 23.0964 16.1172 22.9141C16.1953 22.7318 16.3021 22.5729 16.4375 22.4375C16.5729 22.3021 16.7318 22.1953 16.9141 22.1172C17.0964 22.0391 17.2917 22 17.5 22ZM23.5 22C23.7083 22 23.9036 22.0391 24.0859 22.1172C24.2682 22.1953 24.4271 22.3021 24.5625 22.4375C24.6979 22.5729 24.8047 22.7318 24.8828 22.9141C24.9609 23.0964 25 23.2917 25 23.5C25 23.7083 24.9609 23.9036 24.8828 24.0859C24.8047 24.2682 24.6979 24.4271 24.5625 24.5625C24.4271 24.6979 24.2682 24.8047 24.0859 24.8828C23.9036 24.9609 23.7083 25 23.5 25C23.2917 25 23.0964 24.9609 22.9141 24.8828C22.7318 24.8047 22.5729 24.6979 22.4375 24.5625C22.3021 24.4271 22.1953 24.2682 22.1172 24.0859C22.0391 23.9036 22 23.7083 22 23.5C22 23.2917 22.0391 23.0964 22.1172 22.9141C22.1953 22.7318 22.3021 22.5729 22.4375 22.4375C22.5729 22.3021 22.7318 22.1953 22.9141 22.1172C23.0964 22.0391 23.2917 22 23.5 22ZM29.5 22C29.7083 22 29.9036 22.0391 30.0859 22.1172C30.2682 22.1953 30.4271 22.3021 30.5625 22.4375C30.6979 22.5729 30.8047 22.7318 30.8828 22.9141C30.9609 23.0964 31 23.2917 31 23.5C31 23.7083 30.9609 23.9036 30.8828 24.0859C30.8047 24.2682 30.6979 24.4271 30.5625 24.5625C30.4271 24.6979 30.2682 24.8047 30.0859 24.8828C29.9036 24.9609 29.7083 25 29.5 25C29.2917 25 29.0964 24.9609 28.9141 24.8828C28.7318 24.8047 28.5729 24.6979 28.4375 24.5625C28.3021 24.4271 28.1953 24.2682 28.1172 24.0859C28.0391 23.9036 28 23.7083 28 23.5C28 23.2917 28.0391 23.0964 28.1172 22.9141C28.1953 22.7318 28.3021 22.5729 28.4375 22.4375C28.5729 22.3021 28.7318 22.1953 28.9141 22.1172C29.0964 22.0391 29.2917 22 29.5 22ZM17.5 28C17.7083 28 17.9036 28.0391 18.0859 28.1172C18.2682 28.1953 18.4271 28.3021 18.5625 28.4375C18.6979 28.5729 18.8047 28.7318 18.8828 28.9141C18.9609 29.0964 19 29.2917 19 29.5C19 29.7083 18.9609 29.9036 18.8828 30.0859C18.8047 30.2682 18.6979 30.4271 18.5625 30.5625C18.4271 30.6979 18.2682 30.8047 18.0859 30.8828C17.9036 30.9609 17.7083 31 17.5 31C17.2917 31 17.0964 30.9609 16.9141 30.8828C16.7318 30.8047 16.5729 30.6979 16.4375 30.5625C16.3021 30.4271 16.1953 30.2682 16.1172 30.0859C16.0391 29.9036 16 29.7083 16 29.5C16 29.2917 16.0391 29.0964 16.1172 28.9141C16.1953 28.7318 16.3021 28.5729 16.4375 28.4375C16.5729 28.3021 16.7318 28.1953 16.9141 28.1172C17.0964 28.0391 17.2917 28 17.5 28ZM23.5 28C23.7083 28 23.9036 28.0391 24.0859 28.1172C24.2682 28.1953 24.4271 28.3021 24.5625 28.4375C24.6979 28.5729 24.8047 28.7318 24.8828 28.9141C24.9609 29.0964 25 29.2917 25 29.5C25 29.7083 24.9609 29.9036 24.8828 30.0859C24.8047 30.2682 24.6979 30.4271 24.5625 30.5625C24.4271 30.6979 24.2682 30.8047 24.0859 30.8828C23.9036 30.9609 23.7083 31 23.5 31C23.2917 31 23.0964 30.9609 22.9141 30.8828C22.7318 30.8047 22.5729 30.6979 22.4375 30.5625C22.3021 30.4271 22.1953 30.2682 22.1172 30.0859C22.0391 29.9036 22 29.7083 22 29.5C22 29.2917 22.0391 29.0964 22.1172 28.9141C22.1953 28.7318 22.3021 28.5729 22.4375 28.4375C22.5729 28.3021 22.7318 28.1953 22.9141 28.1172C23.0964 28.0391 23.2917 28 23.5 28ZM29.5 28C29.7083 28 29.9036 28.0391 30.0859 28.1172C30.2682 28.1953 30.4271 28.3021 30.5625 28.4375C30.6979 28.5729 30.8047 28.7318 30.8828 28.9141C30.9609 29.0964 31 29.2917 31 29.5C31 29.7083 30.9609 29.9036 30.8828 30.0859C30.8047 30.2682 30.6979 30.4271 30.5625 30.5625C30.4271 30.6979 30.2682 30.8047 30.0859 30.8828C29.9036 30.9609 29.7083 31 29.5 31C29.2917 31 29.0964 30.9609 28.9141 30.8828C28.7318 30.8047 28.5729 30.6979 28.4375 30.5625C28.3021 30.4271 28.1953 30.2682 28.1172 30.0859C28.0391 29.9036 28 29.7083 28 29.5C28 29.2917 28.0391 29.0964 28.1172 28.9141C28.1953 28.7318 28.3021 28.5729 28.4375 28.4375C28.5729 28.3021 28.7318 28.1953 28.9141 28.1172C29.0964 28.0391 29.2917 28 29.5 28Z" fill="white"/>
</svg>
